<svg width="1200" height="720" viewBox="0 0 1200 720" fill="none" xmlns="http://www.w3.org/2000/svg">
  <defs>
    <linearGradient id="bg" x1="88" y1="62" x2="1110" y2="670" gradientUnits="userSpaceOnUse">
      <stop stop-color="#09111F" />
      <stop offset="1" stop-color="#192943" />
    </linearGradient>
    <linearGradient id="accent" x1="760" y1="196" x2="1100" y2="626" gradientUnits="userSpaceOnUse">
      <stop stop-color="#1CD5FF" />
      <stop offset="1" stop-color="#2BE7B9" />
    </linearGradient>
    <linearGradient id="warm" x1="394" y1="210" x2="670" y2="480" gradientUnits="userSpaceOnUse">
      <stop stop-color="#2D4F7C" />
      <stop offset="1" stop-color="#1C3657" />
    </linearGradient>
  </defs>
  <rect width="1200" height="720" rx="40" fill="url(#bg)" />
  <rect x="70" y="78" width="1060" height="90" rx="24" fill="#0E1A2D" />
  <rect x="108" y="112" width="250" height="22" rx="11" fill="#223B5F" />
  <rect x="898" y="108" width="192" height="30" rx="15" fill="#1CD5FF" fill-opacity="0.22" />
  <rect x="70" y="196" width="248" height="454" rx="28" fill="#0F1C31" />
  <rect x="344" y="196" width="512" height="454" rx="28" fill="#0D182A" />
  <rect x="882" y="196" width="248" height="454" rx="28" fill="#101F35" />
  <rect x="104" y="238" width="180" height="28" rx="14" fill="#254160" />
  <rect x="104" y="286" width="140" height="18" rx="9" fill="#2A4468" />
  <rect x="104" y="320" width="170" height="18" rx="9" fill="#2A4468" />
  <rect x="104" y="354" width="126" height="18" rx="9" fill="#2A4468" />
  <rect x="104" y="430" width="180" height="96" rx="20" fill="#162845" />
  <rect x="104" y="548" width="180" height="68" rx="20" fill="#162845" />
  <rect x="378" y="232" width="444" height="126" rx="24" fill="url(#warm)" />
  <rect x="378" y="384" width="210" height="232" rx="24" fill="#152948" />
  <rect x="612" y="384" width="210" height="232" rx="24" fill="#152948" />
  <rect x="916" y="232" width="180" height="186" rx="24" fill="url(#accent)" />
  <rect x="916" y="444" width="180" height="172" rx="24" fill="#162845" />
  <circle cx="982" cy="294" r="38" fill="#0D1C2D" fill-opacity="0.32" />
  <rect x="1032" y="270" width="38" height="10" rx="5" fill="#0D1C2D" fill-opacity="0.4" />
  <rect x="1032" y="290" width="48" height="10" rx="5" fill="#0D1C2D" fill-opacity="0.4" />
  <rect x="1032" y="310" width="34" height="10" rx="5" fill="#0D1C2D" fill-opacity="0.4" />
  <rect x="410" y="266" width="148" height="16" rx="8" fill="#1CD5FF" fill-opacity="0.35" />
  <rect x="410" y="296" width="244" height="20" rx="10" fill="#0B1525" fill-opacity="0.3" />
  <rect x="410" y="328" width="198" height="16" rx="8" fill="#0B1525" fill-opacity="0.3" />
  <rect x="408" y="416" width="150" height="18" rx="9" fill="#233B5C" />
  <rect x="408" y="452" width="102" height="84" rx="18" fill="#203553" />
  <rect x="526" y="452" width="32" height="12" rx="6" fill="#1CD5FF" fill-opacity="0.5" />
  <rect x="526" y="478" width="24" height="12" rx="6" fill="#1CD5FF" fill-opacity="0.35" />
  <rect x="526" y="504" width="30" height="12" rx="6" fill="#1CD5FF" fill-opacity="0.35" />
  <rect x="642" y="416" width="138" height="18" rx="9" fill="#233B5C" />
  <rect x="642" y="452" width="138" height="34" rx="14" fill="#1CD5FF" fill-opacity="0.2" />
  <rect x="642" y="500" width="138" height="34" rx="14" fill="#2BE7B9" fill-opacity="0.16" />
  <rect x="642" y="548" width="98" height="18" rx="9" fill="#284362" />
  <rect x="948" y="474" width="116" height="18" rx="9" fill="#284362" />
  <rect x="948" y="510" width="84" height="52" rx="16" fill="#203553" />
  <rect x="1044" y="510" width="20" height="10" rx="5" fill="#1CD5FF" fill-opacity="0.5" />
  <rect x="1044" y="530" width="26" height="10" rx="5" fill="#1CD5FF" fill-opacity="0.35" />
  <rect x="1044" y="550" width="18" height="10" rx="5" fill="#1CD5FF" fill-opacity="0.35" />
</svg>
